<?xml version="1.0" standalone="no"?>
<!DOCTYPE svg PUBLIC "-//W3C//DTD SVG 20010904//EN"
 "http://www.w3.org/TR/2001/REC-SVG-20010904/DTD/svg10.dtd">
<svg version="1.0" xmlns="http://www.w3.org/2000/svg"
 width="100.000000pt" height="100.000000pt" viewBox="0 0 100.000000 100.000000"
 preserveAspectRatio="xMidYMid meet">

<g transform="translate(0.000000,100.000000) scale(0.100000,-0.100000)"
fill="#000000" stroke="none">
<path d="M20 980 c-19 -19 -20 -33 -20 -339 l0 -320 26 -20 c25 -19 40 -21
189 -21 l163 0 -17 -57 -17 -57 -52 -11 c-60 -14 -70 -21 -55 -36 8 -8 21 -8
46 0 19 7 70 15 113 19 60 5 79 11 79 22 0 12 -11 14 -47 13 l-47 -3 14 48 c8
26 15 50 15 55 0 4 25 7 55 7 l55 0 0 -120 c0 -169 -13 -160 238 -160 266 0
242 -29 242 297 0 211 -2 253 -15 263 -8 7 -15 9 -16 4 0 -5 0 -120 1 -255 1
-215 -1 -248 -15 -263 -14 -14 -43 -16 -191 -16 -102 0 -183 4 -195 10 -18 10
-19 24 -19 255 0 231 1 245 19 255 30 16 52 12 58 -10 7 -26 33 -26 33 0 0 17
7 20 39 20 30 0 40 -4 44 -20 3 -11 10 -20 17 -20 7 0 14 9 17 20 4 16 14 20
44 20 32 0 39 -3 39 -20 0 -11 7 -20 15 -20 12 0 15 13 15 55 0 55 -16 76 -27
35 -4 -16 -14 -20 -43 -20 -29 0 -39 4 -43 20 -3 11 -10 20 -17 20 -7 0 -14
-9 -17 -20 -4 -16 -14 -20 -43 -20 -29 0 -39 4 -43 20 -3 11 -10 20 -16 20 -6
0 -11 -9 -11 -20 0 -16 -7 -20 -33 -20 -64 0 -71 -14 -77 -152 l-5 -123 -233
0 c-249 0 -256 1 -250 50 3 19 12 20 211 23 160 2 208 5 204 15 -2 8 -42 13
-135 15 l-132 3 0 36 c0 40 40 117 66 127 8 3 25 -1 37 -9 28 -20 116 -20 144
0 17 12 27 13 47 3 31 -13 44 -5 26 17 -27 33 -47 36 -82 15 -42 -25 -84 -25
-126 0 -89 54 -76 180 23 214 73 26 148 -23 161 -104 4 -26 12 -40 22 -40 12
0 14 9 9 46 -5 50 -27 85 -71 118 -38 29 -124 29 -163 0 -68 -50 -92 -132 -58
-198 15 -27 14 -30 -19 -67 -26 -28 -38 -54 -48 -98 l-12 -61 -53 0 -53 0 0
259 c0 223 2 262 16 275 13 14 66 16 429 16 227 0 420 -3 429 -6 14 -5 16 -29
16 -156 0 -143 9 -196 31 -183 5 4 9 75 9 164 0 145 -2 161 -21 185 l-20 26
-440 0 c-426 0 -440 -1 -459 -20z"/>
<path d="M294 669 c-5 -9 15 -25 42 -33 25 -8 74 12 74 28 0 13 -108 17 -116
5z"/>
<path d="M620 415 c0 -12 15 -15 75 -15 60 0 75 3 75 15 0 12 -15 15 -75 15
-60 0 -75 -3 -75 -15z"/>
<path d="M822 418 c5 -15 77 -18 81 -3 1 6 -18 11 -42 13 -32 2 -42 0 -39 -10z"/>
<path d="M627 303 c-14 -13 -7 -33 11 -33 26 0 34 11 21 27 -13 14 -22 16 -32
6z"/>
<path d="M721 301 c-30 -19 2 -31 88 -31 92 0 108 5 90 27 -13 15 -155 18
-178 4z"/>
<path d="M622 163 c3 -16 15 -18 98 -18 78 0 95 3 95 15 0 12 -19 16 -98 18
-90 2 -98 1 -95 -15z"/>
</g>
</svg>
