<?xml version="1.0" standalone="no"?>
<!DOCTYPE svg PUBLIC "-//W3C//DTD SVG 20010904//EN"
 "http://www.w3.org/TR/2001/REC-SVG-20010904/DTD/svg10.dtd">
<svg version="1.0" xmlns="http://www.w3.org/2000/svg"
 width="100.000000pt" height="100.000000pt" viewBox="0 0 100.000000 100.000000"
 preserveAspectRatio="xMidYMid meet">

<g transform="translate(0.000000,100.000000) scale(0.100000,-0.100000)"
fill="#000000" stroke="none">
<path d="M140 500 l0 -460 230 0 c228 0 230 0 218 20 -12 19 -24 20 -210 20
l-198 0 0 420 0 420 220 0 220 0 0 -100 0 -100 100 0 100 0 0 -110 c0 -103 1
-110 20 -110 19 0 20 7 20 123 l0 122 -108 108 -107 107 -253 0 -252 0 0 -460z
m590 325 l64 -65 -67 0 -67 0 0 65 c0 36 1 65 3 65 1 0 32 -29 67 -65z"/>
<path d="M280 580 l0 -60 60 0 60 0 0 60 0 60 -60 0 -60 0 0 -60z m80 0 c0
-13 -7 -20 -20 -20 -13 0 -20 7 -20 20 0 13 7 20 20 20 13 0 20 -7 20 -20z"/>
<path d="M440 580 c0 -19 7 -20 140 -20 133 0 140 1 140 20 0 19 -7 20 -140
20 -133 0 -140 -1 -140 -20z"/>
<path d="M280 420 l0 -60 60 0 60 0 0 60 0 60 -60 0 -60 0 0 -60z m80 0 c0
-13 -7 -20 -20 -20 -13 0 -20 7 -20 20 0 13 7 20 20 20 13 0 20 -7 20 -20z"/>
<path d="M740 440 c0 -11 5 -20 10 -20 26 0 5 -20 -31 -30 -54 -15 -115 -77
-130 -132 -23 -89 12 -182 88 -229 57 -36 154 -34 210 3 75 49 107 138 84 226
-15 55 -76 117 -130 132 -36 10 -57 30 -31 30 6 0 10 9 10 20 0 17 -7 20 -40
20 -33 0 -40 -3 -40 -20z m103 -94 c103 -43 128 -177 48 -257 -65 -65 -157
-65 -222 0 -124 123 13 325 174 257z"/>
<path d="M760 266 c0 -51 -3 -57 -34 -81 -21 -16 -33 -32 -29 -41 8 -21 21
-17 64 17 38 30 39 32 39 95 0 57 -2 64 -20 64 -18 0 -20 -7 -20 -54z"/>
<path d="M440 420 c0 -19 7 -20 103 -20 96 0 157 13 157 33 0 4 -58 7 -130 7
-123 0 -130 -1 -130 -20z"/>
<path d="M922 397 c-9 -11 -5 -20 17 -41 23 -22 30 -24 39 -13 9 11 5 20 -17
41 -23 22 -30 24 -39 13z"/>
<path d="M280 260 l0 -60 60 0 60 0 0 60 0 60 -60 0 -60 0 0 -60z m80 0 c0
-13 -7 -20 -20 -20 -13 0 -20 7 -20 20 0 13 7 20 20 20 13 0 20 -7 20 -20z"/>
<path d="M440 259 c0 -18 5 -20 52 -17 41 2 54 7 56 21 3 14 -5 17 -52 17 -50
0 -56 -2 -56 -21z"/>
</g>
</svg>
